<mxfile host="app.diagrams.net" modified="2022-10-20T20:43:56.319Z" agent="5.0 (Windows NT 10.0; Win64; x64) AppleWebKit/537.36 (KHTML, like Gecko) Chrome/106.0.0.0 Safari/537.36" etag="xT2FstfIDh4YexsymnSj" version="20.4.2" type="github">
  <diagram id="kTc2UfcSaQr8k9MuHxfI" name="Seite-1">
    <mxGraphModel dx="1662" dy="794" grid="1" gridSize="10" guides="1" tooltips="1" connect="1" arrows="1" fold="1" page="1" pageScale="1" pageWidth="827" pageHeight="1169" math="0" shadow="0">
      <root>
        <mxCell id="0" />
        <mxCell id="1" parent="0" />
        <mxCell id="oxd261YcxybyjYHQ-8nC-1" value="" style="shape=image;verticalLabelPosition=bottom;labelBackgroundColor=default;verticalAlign=top;aspect=fixed;imageAspect=0;image=data:image/png,iVBORw0KGgoAAAANSUhEUgAABnIAAAG5CAMAAACN7lrPAAAAAXNSR0IArs4c6QAAAARnQU1BAACxjwv8YQUAAAMAUExURf///8XFxa2trWtra87OzgAAABAQEO/v7/f3997e3nNzc3t7ezExMebm5ikhKb29vbW1rdbW1iEhIWNjWpSMlFJSSpycnEJKSoSMjFJaWjpCOjo6OqWcpYSEexmcEM4Zc87eWs6cWoxKc8W1jBkQGcVaQlrelFreQoRaQhneQhnelMUZQlqcQoQZQhmcQlqclBmclFreaxnea1qcaxmcaxlaQs5Kc8XmjClra1revRDevVqcvRCcvaXv3qXF3lJr3lIp3lJrnFIpnJxa5pwZ5hlr3hkp3hlrnBkpnJxarZwZrZzvGZytGVJK3lII3lJKnFIInHta5nsZ5hlK3hkI3hlKnBkInHtarXsZrZzOGZyMGVopaxlrEBlCEM6U5kpjEEoQGVre7xDe71qc7xCc785r5s4p5s5rrc4prZzvWpytWpwZc85K5s4I5s5Krc4IrZzOWpyMWnsZc87vGc6tGXvevTHevXucvTGcvdZaEGveEJRaECneENYZEGucEJQZEM7OGc6MGbVaEEreEHNaEAjeELUZEEqcEHMZEL2MjJS9jBkIOs615kpjMUoxGc6ctUoZQvdahPdaGfcZhPcZGfechPecGXve7zHe73uc7zGc76WU75TvjDpCazoQa6WUxRBCaxAQawgIAPfehJxzc/feGfdatfdaSvcZtfcZSvectfecSvcZ5vfetffO5s5zc/feSvda5veU5s7m78Xmvd7vvaXerRAhOvf/Ovf/vQghEM7O5kJjStbFtVprShAxQoycjKWUrcXm3ikhCCkhQta9tVI6QoSMnPfv3lpaa1JCQiEIEJychN7Wveb372Nrc73FtXtzY3NzhObe93NzY5SMhGtrc97v3py1rYycpQAQAGtzY1pKSggAEHtrhGNzWv/v9ykhIffv7zExQmtjWgAQEDpCSu/v997OzpytrTo6Su///3t7hObW3t7W1r3Ozr3Fxb29rebW5mNaWvfv97WtrcXOxRAZEHN7cwAACO/37/f3/2tja97W3nNrcwAAAKEcV+oAAAEAdFJOU////////////////////////////////////////////////////////////////////////////////////////////////////////////////////////////////////////////////////////////////////////////////////////////////////////////////////////////////////////////////////////////////////////////////////////////////////////////////////////////////////////////////////wBT9wclAAAACXBIWXMAABcRAAAXEQHKJvM/AABzyklEQVR4Xu2dbU/jyNKGwTJx7Fhj5BC7nTjf5pfvzzhICIEiQoiATBShOXAkwugsGd5RFD4gg5672g4we/aZ2YV2D9tTVzJMnNhOwJWqrq6XXlhiGIZhGC2QyakwDMMwTMlIk/NbmGR7h9negH/yT/7JP/kn/yzrZ+KTyakk0V3Hvu5c23znO9/5zne+l3NfjOIKmZyss8AwDMMwpWJn0uTsbRTbDMMwDFMS9iD3cuxim2EYhmFKwt6TJmewWGwzDMMwTEks5hNr2U2xzTAMwzAlUcRysutim2EYhmFKIihMTlBsMwzDMExJXB/mJueu2GYYhmGYkmAvh2EYhtHEXWFy2MthGIZhSoa9HIZhGEYThZdzyKWgzPvj1BlebTy4jiO3HMcFxcZ3OMd+NnYsNv+cc5zatt3hfbH9/3JK75q/9dCRe2PDtleLD3Lq7D7QDvT4G/7qp1XLuXxb57TYZJj3Bns5zPvl3g3S0ciyc73trFpRZN0Nf6TFT9xAfOoHP9jP3bdGn6OgW2z+vzi2ZS3bdpBGX2+lZTl2byJRa6f78g2cSZB+toL/sTnHu3aAT7u4W2xr4oQ+7vwPxjDvD7vIWNsvthnm/eDciSxOssg+py33VmRrF5b9I8fEsUXPT6Lv7+e4lsjqYvYjNwcq3NsTQRAdTh+jwJXPRJnvN/GpSLEfBJ/rUzyWO78A5/+U1T2LjtDIKcxt5lk8acG8V+ZeDncfYN4fTlCLw0rTCy5py02z+Gyaa/rvcd7xworv3X13P7hCkQdf6AcmwXECkUxrliW24/hQGpDdjogrS0v4VAfYcmder5mI//1QNj7t79NIs8lZuAy8pCECRxpphnl37Bcmh4dFzPvDCbzWb0thEsl5Kzeqw7lYX/yRyXFu9sKlsfjBfo57FwT2DyI+cGnSQTIlL2ca97yUvibDZc//bWkpzKQBWk0P43g6yv2wF5Av1GzhkxfburgPvF6Mj3ZSbDPM++KGYznMe+U4dygqLU86IwdWFsfZytyhOHacg2F36LyIld8Pd/GEG3h+xa/NTY4DXPz7Q0gdz1y6buENzPf5HwPkzkSWeJZtW14S53Np7rL3BV7OZhLZxwtVO9rrNbKvD9j3FMcf4PPIc95ffR30aPZNfqQX74695Kd+8V545sUnPJYnesHJ+bF8gZ6+lw/xID+HfB6f4sURMHVJNrrpcgYB8y6Z91jjWA7z/nACOYcVJiOp661B3CtCKHhtI0gjsS7Sp9C949rWylY/sqLMr8TFXBc9GYmV/tdFOTn3hExrs13pDUBPW9FWfysN7D8YHceGxZmKztANakmciAAv21+zcGlp6SPe4Z4+4TTOBM38wdRFYhRFli3fyY68BIemePd+lNpzb4f26m+tR88ZB/kn7G9Zd/knpHw4+2YxCKzUsoKbwLYpUe4YTwdBfpBjB9G6WI+KU5zjN+lc5wcErh0dJmQkv/1FGOadkMdyfuO2nsw7BF5OYwfq3c9St7owtPYahacBFezOvKQF4qcQvQv132z5iSeycKd1kXs5FE6Pm198mItvJtHuh51IiIhsyIKzH2Vx68xvePn2M3CY8rfEJ5m24gHeClaoQSYHRi1wTrsW7ZBSqgIs4lns+9h9HydxXPKLkoE3SGL57ru5f7J6i6dbrbNEWMXnuQxEPT7zW/NP6OynQlwI4e2tZZ4QNSF/43PKY8hwEFkcnJp+8yw3LPcTSxA1HCACWxrBT8v5yRnmnVHEcg55vRzm/eHcXPTC/8LNIfUOne7FvcM0V8Abs4ukFYJNvEaq+vTyepSMK2EYZ1kDP0c2HBjHCaJpk3aTNqc4LeHAWWn0pLlyblay5niMfWQa2gtd7bhR1oy9wL137Gjqt6ap67i3XrxTqVQ+xrWZ62zg6Xiw7FarTuDFmx/lSeRHlHaht51lzY94OsGJz+mEt58SvFO46ffEbBe7ObB30zjcDMMPxSfErzntJdNpliRJlmW9xCM76Ey+ejEFacjiZDGdI4S1pXdyrkdZgiOy5GhbBBO4V41nO8ww74vr7DeO5TDvFEoXC0Pod6hxqezn8RSo3Ys6qdkk9s+mUlXf23BVwnGcZN4gDiu+sEmf48lejP3gWDSghnFogUx1jim87zxE9diP17JGkfr8nAmAnRLYBlL5rpX5sHyLu1D4PnwZ2je1h5OVRvg7bIJDLlb8JU56cSynteDlZNgp8Tx86DBsZdbEWTjtkkcTy4/tH+FjH8tPGBefMPFu3XNpWclZqolaTbRxknpKdtHuZ60mTI7jLtemdMRRizwq/DVOOyLBx9keXHjtyHbxSfCXiSZ/TGhgmPfAYlGXwxlrzPtjGLSPoN/DsV8XQRe6uBcffiWTM0nhA2SRFcyix0Y8FbZz4s6gqaGDZ4El4grFck7IZOzl+0XT1vibVGap6smS3TsBGZOaZUVwI5LR9WW12IV2EkkL2pseBh6ZnM4qFHoc170sbtX711eBaIWttr17eQ2Lk3gp3hyfrEaWAaap4ifRnY2nmq2kRnYRvlLcy0aWhb3JEyGLs5c05CfMfHzCybE0OWM/ac/sid3B46bMtHatTwl+0cB1LUExIivAXyP0yQNybkTyAb+6Fdg2ZSF0tvBRRqvPvyvDvB+4+wDzfnGCC+h3OA5NGs+vBrmXU6US0V6rITrkfcwojQ3+BrR57gVAr8eblRZ5OW7QpiNgMpw0Cf1s9jxrVrWjgZyoqg6ttbDSuoAypyrKqHPwnF98eT3qxdOVDTyE9Yk/trzAnsFaQONLC2PZQa0ZNj/Zl+TTxAPo//NJP0vqW/swDQOYHLzlggMDGVNtKgyMOIJ3ZNmunQrvggxT0J7iE8KmdOUnpPnDQPRoJzy3cLwRTc+SzzYZokFyNEhdl/y2RP7qNowg3LRjmK1py2/MDapjp4kfi++XJTHMT6LIWDvk9AHm/dElIzPNsqQXN7zgzvISqo2B92JlTX+ahyts0Wgl4nZ/WUCtC+qI7lhJWIlrExmKoQNpiinIWq0BGaQCci96jUOYHNc6qsikOKjzW8veeFbVzgFMXkvOa+F9RvEYvlAQedPEmwVp1jzyyNWIx0kfJgTuUG+FdoQ7BDenM4QRavpxm6YPnH3RHMNcUV1p/DGMvZnrTvYDyo8jX6tRkwM+OFtNz9p1ZF4EnCL5OS5hyhpt7HgN54qCPW5ud+mdXPqNI/sehgw+Exw2OmBh4d6Ner7vkVFimHcHeznM+8UJavABPOFBpdYjS06spRQnSWVcY0j74HGv4ckXW3mxP82B7ZCXQ7q4mdRmeNIJyKeRk3I5VTvNw/FVx9oLl/69E5Of47rD07wIhjilyTqK95Df46ZUDBqlkVenvDA4HUkmrLTdO5umNnkmLTmXd+JKw2ht2LBG81JQNzoKw2zmwsIk4W/wfSLbHe5eUhUNWZI8ieFW1nA+wPGpJT2aK6Qj8RdokDflzgTeCI6SdKdwPF5bHcE0YT84ePQneEoYIC/Pz5aHHMxh3iG8KijzftmdfUp62Xqakg/hiRo1XLPIlKwnca/wA1zrEM+KKKLRv0WlLY7t+fByYJqCWs9vTWuRlaZe4vtZ/7kjgWOnh3QATE4gWv9ZWlqKvfQP3QjIB2m2pukVbUhd7/W3vEF2CIsRCJicthBwabzAhQWKxy2YICta8Ro+JQtQxlovd0dwbLwTrllDMhhjvFWYCKtD5TawjvQJRZR+jShpIOvDqATwo2BU5Pze/Z3Ipl4EE0eRJ8vt2lHd9xv4m1ipqLf8Xjtwu9ejLM7EbfHRaQqwEmbWiwlChnk3sJfDvFuOHRmLEbd3sxq8jWxKMR3KBoO+byaCyl8WFrrWY9KQJoecBGp7RiZnx8fwH8o7Djd9PwZ+WAnji5u5J0Bezl4vHsAkVOEnkR2o+Ed1T+bDzSGT04LJ2aBSzN1lL25knre3tu2lq107zRpJ5tWyJOtTTD/78nEzbBXv9KEeUb+CXnI4NzlJ+DFJu1TeQ7WtS2Ez2aNKTvkJwzF9wt6XsDKGoyQzzsjk5B/kKiWvKqIUhJ53O9ylHLow9M/oncaVnfjRcim8k9TzDg3AcUcwOXHeJIhh3hm8KijzfnFm5Cn0b6BUp61W0/dbvUPLdQ5ovm1K01gA2r5xhFE/vIRmXU4ukckJm4XJqXysUNGLLGOZRt94OYM43pNTWvtQ4x8rhKyfKfbAC4GY+nE9n1iDy5T0kiTpxdPaLSWk0WxfY1pPPAsG6Gvdr/y3EuZvNY69ZZu6D5AXRSdyIxiBxNrN09Eo63unshl7wcMVNnfwtjvyA4Y0YyZjOY0nk0Pts+twp2owsnjOWRQJjt+hN8Ldp0Q4uDUZ/hyz4oM7q2RyElkcxDDvDfZymPcLqfl4bWvRuQxqsb8Dzfx7lm44ToeiGLVcpw6tAXlCUTQ484+kU3HeEX6lhZddakQdfvBjshVZ5kWzhyc1XLW/Hs4nvhzKY07i8X+XljYpXjLfSQb3fZnxVmy0fH/sJ+LGkZ4WHuPclOsMu9f8GH6Ij2L5TsJapFgO3KBnL6eSyPg+NbCewlGh9gVeEEgvh87SS9aygZd7Pm1y2wqLAdPoJUmdUiiyaHXhxF6ZUtEqfJwj+pWEZXeHdh8e18U8llNd7ceVnYS9HOZdMvdyuMca8/6g7K94ugIjcAVH5N//+XellaVXJ8711rT1HMuhCE8//SxLNWUJzQ3FcsQkj+X8vnYRWZZ1G9zZDy+0MFQ5pTXnetpx7bvZKPOXlv7z+9MEFe1DzQfqqSsD8bJeBg7KB5kbBpPTI3dlnLSpEJRei+sixTsFwb7tDrvwco6evJy09y94Ofl72XZgeQm1jssiPGrA3gj6hLObG6qrOSb/Cb/Q3ORQHU7rrAGb1L7tni/YUUI9ffo4AO+UF+IEW/By2k8Ta1d5LOfp12CYd8Tcy+H1cpj3Rz6ZRY3PYHya/1la+rd/mLqnJ5Sx9jxpBZPj5b08W59IUVPGGnk5JzAZSZx8oow1qO7JwwEF7PN1pRfuJ18H1D7tqnhm4WQ38L5U/g078GSYHHd5IPOQ5QzeZZA3V8u1uTOJ6rK7p2xO4Ng1alNgU/tm2aD6xHmAFaKFdOhQGMwwnFrOqbM7ofc6n0TxR+rStkxVPnlOHd7tapUcLHcG1y7bKkzOya49mvrhGL/v1g29amU9fOzVY3hzlxtXtOb0bmcdXo5sv0bc4+RhmN3mq2YzzPti3mONuw8w7w9ZhDKlNtJwc3r/ghPiwyLAblgD359+JR17b9dIswf2redv+t4dVHFelwOHB5o9i3vtgNKe3SD62hlWHTeAd0AnpLoc2QDAteFh0Kmgzf3QX4toIYIcvP/ZOB7lXw7HFkcfYWRkxf/CPfYmk/OvIxiHqmOPEj8RUulTx2f4ZTCL/jjO+6PR9Jmsy5lYW3nnUFvALMQXQfBclzO8jVLKiCAvp/Hk5UhXy4c3BY+MXDi8CoOUz9fZaURrYzs3FMuR3Q0Ih+pymt51cTzDvCt4vRzm/UKzV9TlZXdhAT5Iiyaj1tKNkwUKokPDy+4DltdrZtbEpVQuGKSr8xM82iEvh0wG1fZT9wBnttdLPsMSUHaX7DRD5fwy/+3K8jJZ6EL5ca34MaVmAznOTbsV+hfkXWDDjrbJyMRtaTSwNyWffcwTDmCAzmKPIvi2JTzqEu1ah82dMYVUqA9nqyWD/9c1uCh0OE3r+cnItmeCgjT07tah/IT40C+9HDJFcNpk42qyKdRrrZEXii62kyPZ8GZxPevVc2dO7oG/RPyjFeoY5udgF3U5HMth3h/DGZVTjoJhlRTpFAo/3I4mtFCA7LH2OV22aFWaDH7QOQ3/v8TZOnUEgIpuFT3WKPtrZM2ibT+kljAwDU0YK+mF7MXUSRoG4TCOEzELAuElR1mUr3otceyL1k7T68iFB+A9rMHL2UzyReJg9nowOfm6CmSApj2a30vJ4/Csq90HeEGVf/Vq+Dx4igznJbk7zRAGMgjSdtJreDN3l1YdTbK+ZcFOfCCHCr/I4Ciu93M7B7rBp/i3pZ2GXDNo4fzBgpGqiyiI4Dr5e8GQDDPVkz55OdSMIBlNeI025j3CsRzm3VJ1bsnkfAq62BguCmjeSkxrcUKtWu2sETeSBP9gJaBtHXfWbvjhWSPzMrgfvtc5l52k93qU3EW9mcm+dK1MdiZwTjbkSjdf4YQEVPDZovznZpyJ2Yscg5PVPql1a54/QFNpFOyRURI4E+HSv/1B0KU+oG5AlZkxziH7wcHLiTKf0p6zrNGixXDovM5VCouHvfC58zbQecubs+dPeEJ+W9zcfvZSnNV+Ev43TL660ojg94QXBCMJp87f7t/hrB3YmHwdhvx1cg1lYziGeXdcFyaHYznM+8OZXUzjaR79qLrW9ENlDD1N+p8UK9VEUg1MUYFCHoxf2Qx/zwYJdH3eSpnsCe224ydtWlZnl/R5Fk2chYmVxVTlA7sUiKw1Din3uOctv7A41K4saUpTRRvObM+vVOLcAi6cSpvyIaO5MEBFQEdhZV5cU8Wn8ZK4l2RJM9wJe7UZ+UJkKr0efepwk7q6wXs7wSes08I/leITksmR3Qfmn+P8Cp/Uj2uF93XibKRez6fKnOJXp1hOY1vcyv4/5NkN4iNP9mFgmHcH1+Uw7xfHTkVtlK99uXCykQ6SughkYSY086w2bbZ+f16ZmsIoWQyvyIuEjNfIRQi6sDmJLzMM8lBI6nnyoeyflsfhSUv3WnErTrwXXdgIBx5Fo1h8k47NXqzxTBU2WSYogF9s44TwljLyPGjTGgkxEgO4JDJ6JHeqUm8B+FTxGc2EPX3CxlmLpt6knzJctEQtslyazJMc2OnFoGbRhKLkZAJr1oRrVJzVebCitkivpSWEz/MZn1Ku8cMw7w+uy2HeL1XHvutcP3TzsIQzWbaCu7mGh1uRRv2VKLBzVQscezmKVqzA7gRW4HblbNipS09GkXWXD/sP7Lu8kxqciQZ1FsBzTvfa+rqCc6UB3J8XnDj26HHqRcVCAI4dWDN8gOLjuHaw/KIrGz5QFI2i9HZVvhNetjvX9iKe7OPTvNjLwl6jCM/lz+ATWthnxbLzTygPxGmfunKedG07WHxhC+lzyE9bnPXgwQ7sq2Jjd1lk9Se7yDDvjKBYFZRjOcw7pLpwenp6/KR8z09fLhN97xD3zsLT6wvyGef89Bz7zcPneOx0Hadocnm8cOycOKT5KaifyURrPHuSH/k/tSzY7TCbF/ZXq1Wc98UnwFu91Ox/PAc+xgI+MSH9mZz5W31znm+foNO+OOIc7/nyfebnOCn2OV64P6kW73r+YHnZo4xuMcw7pMhY47oc5lfCvU4HMbVwfpGe9qdQ8CXLntPH3jsnFJiiBa3/KR+Y+dXgWA7z60FpYn5I6cpPAZL/h+owENtrn14sJ/rOoaqeqbhxniJBDPOumGescSyH+XVwgn7ih60XmQf/L/dXludtBf8UFU4ThoN5vjTDvD+4Lof59aAUa8/zosWDHzsvDvXDsZ+D+e+be2diWZw7wLxf5hlrHMthfiEc98GWbZuL7e9QlV0/XwTz3zeOs4uPy50HmPcKx3IYhmEYTVxzjzWGYRhGDxzLYRiGYTRRxHK4LodhGIYpm3n3AY7lMAzDMCXD6+UwDMMwmuBYDsMwDKMJXi+HYRiG0QTX5TAMwzCa4PVyGIZhGE1wLIdhGIbRBNflMAzDMJrguhyGYRhGE3ldzn85lsMwDMOUTR7LWcoWi22GYRiGKQlbmpzfuC6HYRiGKRvp5VTCLHAYhmEYpkzO98nkxImwbIZhGIYpi2vbdl0rgcmpiVFkMQzDMExZpFZg2ymZnPZFBJMT8Y1vfOMb3/hWyi210ls7iJLflhaSpA3zwze+8Y1vfONbObd93FzXoljOju9x+gDDMAxTGsPu7tBxgrX/LC0s/Zu7DzAMwzBlYz/Cy1n6D9flMAzDMGWTdx9gL4dhGIYpnbzHGq+XwzAMw5TOfL2c62KbYRiGYUriujA5d8U2wzAMw5TE3MvhWA7DMAxTMsWqoOzlMAzDMGXDq4IyDMMwmigy1g65LodhGIYpmTyW81/2chiGYZiymWescV0OwzAMUzLzjLWbYpthGIZhSmLefYAz1hiGYZiS4bochmEYRhP7XJfDMAzD6OGGvRyGYRhGD0X3Aa7LYRiGYcqG63IYhmEYTcx7rHFdDsMwDFMyXJfDMAzDaGJel8OxHIZhGKZkuC6HYRiG0cS8LodjOQzDMEzJ5HU5v2XXxTbDMAzDlMS8Lmex2GYYhmGYkuBYDsMwDKOJeSyHM9YYhmGYkpkv0cZeDsMwDFMy81gOpw8wDMMwJRNkv7GXwzAMw+iAVwVlGIZhNMEZawzDMIwm5ukD3H2AYRiGKRnuJM0wDMNoYr5eDtflMAzDMCXDsRyGYRhGE0XGGtflMAzDMGUTZP/V7OU4rs0oYbLhOsUf1TRYSNThOufFX9UwnMuN4ldk3orraFMl8x5r2upyHNvyRMa8mUPPEzNDbY6zYQnPK35R5tUcZp4Q1uSk+LOaheNaFzUWkjcDIfGEpS+YP18vR5uX41iZH/oh3fnfm/75H/wsMNPknMyysS/FhP+96Z8fjsNs2UwhqQaeP8av+b+/Nf/7e/98f5xY2oRk3mNNm5E7WPGXKmHT95t8e/WN7n649O9Yn6BoxYnipd/wTXj5O/Pt793oDiGpLMWRsULyWwVC8vQb8+3v3+hOQtKK3OLPWjraM9aGwl8K12rMmxCe8JLwN99UbYJxSZiI4pdlXgXJiEjCJV8YKiRpa6mStGssJq+GJMQTtSxcGgttJmdel6MtY81t+5XEGroHLvM2orMdUwewB8Lfia3i92TeQNQLjR2X9L9sxlHxezKvYK6Do6SicVyi3cvpCj/kwlMVBPXwy8hQbTKKw+1OscG8ATsLfX0DWK04URwmXE+oADvzNQqJ9k7SrvD9wWq12GJeT5CEpno5Q9EK9YUXTcZe+xCbOi5Z8cMpC4kC7MPQH2mM5Wiuy7kkL4eXSlBAMDV4zqQZbvMAVgEBeTnDYsMspJdjFRvMG7CzDxq9nHldjrZO0gdschSxbK6X4261wjqbHAWQK9w3dFwStXhiTQn7WdjSNy7J63I0dpKmORONvQ4MZpZsnpmqTUZN1iZKgJfT2jI4lsNejgLsbOy39cVycpOjb+Lcbftj9nJUEBwZ6+U44mzMXo4K4OW0jB2XnG0ms2KDeQMYlzRFt9goHe0Za5eiyV6OEpaT8MuKmdpk2Oc5EzUEU51zJlohL+eIhUQB+1rTGjmW84/FMjeW093i2Vc1kJcTaRvAasWJ/JC9HBVck8m5LDZK5zr7TXMsZ8TaRA3QJqZmrLGXowqK5Zhcl7NcbDBv4C4b++Kg2CidxaIuR1csp+qyl6MIg72cA85YUwTGJU1DZ1+dFYxL2MtRgIzlaPNy8ljOf02K5TgL984zJ/fF06/jtTWr+BDVkutdKWPN0Co/HV5OdaH6Uk7u/9bVwuV9tWgU3MuTlE1QH7fEbrFhFuXEcu6rhUAQir/BTvWVX9eStcmd1lhOkbGmL5YjG96U6OU4jh1YVjTHunad1y8X4jiu67xCL+BD2IF99ZpD/zqz5KPBsZxxyaMg5+BbOQnc7l9eycxx7SCwD97yt7/Pz1H6wlgUyzHVy1Efy8H3vbNspU8yYX/X6Ejt8Jf/trjgy0HwmgWuclEpcWksOfuq2cvRGMuRE2slahPHtmrbvbgZ+7Hf9OOpmLmvXRRRqoXXXOoqPoTwhFXuAmoyMlzqO/w0NHg5zmLkJXEct6iFeytOvMj+y39LN4i8i2jxLZfXcWd9T/yN93wl0CZf+tq0iVZKiOXc29ZWBqGQuuP3o8Poe+tRSe3wly/giXMnsqkIXjEMdexIeNGrrNVfQ3o52nJMrvNYjsa6HOH79RLfzb314vBfO2GO3/Ner/hhOCyMdF7h0bqBSFrJqFyFYnjG2rRck+Naj81wp7JZCMo4frRW/+LkheNGWdzz3qQDoEa26RxlB205lvN3cGyR+JUnoYgzjAn+PxMhZ1Osv/wVP3fxfQ0T6+/PXzmuBTOYpeVpE4xLNHZF0l6X44zK9XKGVtaEwYl7CZHR6OCVs6An0lW5fc0c526nFo/ji5tSv+scy3kLMBt+JfTPICTTJIl9P/Fu/6INub+KEt8ndVQ88QpObXmOV2igv0dQD1v6kpG0Ai/no2Iv5zIQjbASfjkioYC3A5tzN/x/rrJrRZ6wrv6qDFTdNKn81nzNSmiuVYd49sszOfuZr7H7wHy9HG2xHDmxVuK7uenh736c9a1gFsxug8B99VjUtbxp9rrZMTfwen5PlOvlBEcfTM5YK3cUVL2K8D1u7EUWxCSwRnBbsij4a+Gc8wnMRRPm4g1/fDmebnqWc1w8URLwcs76ppaCqvdyghoGAomQQpHWpnEDNufPZ5xoImPq/XUvByanUan00leZnOlbRzjfx14L/ZG2HBPtsRzKWNsucWLtwBrQ4OSb6+PsdvO1iGw7D9g6BxTe37eviugf7XAwxE7Ywc4TBhw3aNPYl2yOPMR92KfITq5nqs7wAA/zA+ZnAQ6euLPtRetT4/fSTQ7X5bwB92t2FA/SQhLtKItjL90gA+DQRbxZ3J9f6+KpxbuAZINcZjeqt+JDMjkkAdhNTr4cH7gkIYX85BJCckdy9pyE4hzQE3YQjKat2AsuXxto/ItQxtqWqaWgytfL2e2IaZx4eQTHsUdJ3MxW7FNs3Dvu6n7wpAAgD6JBnjFsDm2fuy+vvUwsOMD1l+okl6LTrpWEH+OIziHPkgsESRbO+yxshUTh0KfT0cRac5tUGr0IWcr3VMfNT+kkrTOWU2rGmmvt9RqH1kOxKbmkoIxlRUIIGRB0XEt4Gfh8O5Szbu4iXr7FHt7eQOSTpnBU4vC3yofEk9v38HlwwKHIxzWOjb0D/MN5vGh5rpsobeAxy4QYeYnPsZxXQ7Gccuty4OVkpFyKL5pjDZLeYSS/Bc5dWiPh8KInP8bdT6W85Fe/6kbbzfjRcu/peovo1pVKCeNeXPusZkmNde/eQaaWl63P3uOesCbFmTCSWfH2srZY8XCOQrmVCOWYmOrljJR7ObiE03gqCmV4SSrAz6+RYxdCIWYkFE4wSsaVCkV7ZDjOnQkpH7nuwEW2yFGCPoHGmG3IiyxjOXE7oh0Pt4pJ3KpTSNY8PQCHRqJvBcv5ofI5aXKyFKbGhQ5b/+ue1V/lRmv3gbyTtMa6nK4oV5vANCTx3nz0KiELc5jtHWZZLxlYeMUl/5nigz1xS5Ge+4dUeN6FEDAUYe7C3ttW5lf+81slbEAv3R/jtDEOgAWy6AjKWfI8seVNm6Efi0JzQQMNYpwhybwsbiUlezkzc/Nf9cRyYHLmsRQpNRjQ4s/p2JHXIOGgMaybD1rJCSKBKdxnN4WXQ3kptuU14iy/zm5wAZ0i95HDGjuVEtLGkeN4b269ctHzY0hI0qIUhLn3UxLUY81cL+ejYpMjvZye6ORlFRhmTsMwofALVMiAvv+5UJBh8OKPS0uVnXhAV5auanHtpQjdSe0galn8QSYw0dlgOMIKrjtpHh8DlgcSCEhQ9uK8sEEU40s+wTDhaSljC8e7t1kzxnjIcW8hpVOhPOdEdh8ovgnlo70uB17OuEyfCle2l3wbloXGmMZncZLVt+u4iK4cy/h+0w+bSY2sxbGNKxxPISYkD7EH36d69TWLdyqVHT8RwaWzkZLO8X2/ldSkjJGKSrJaLWtCXKZS0DD6/Zr54eYHvHCYNFvTkr0cs+tyys5Ys9PDeK4NpNTEuZcD5eKtxV/iJi42Lj0koUpGKGlhG5e6Tpca5qrZwxCUxiHjYojiWtKWAJquc+4dErKj7cGnQTwOw4YInHMa1M5wBCmY+gACFdd0eDkmx3IUC8mQLlpyMb8qTpD5m7GYkHvxaQ3XqxAKl4SkF1bg5pCloK1kHEKh+A050+bMRBL3Mg/DDViTRHTofK5VD3f87HAKOdqU1mTBoTFL0vRjaCM/E3fuCXSVN658nApBimWM98KhJJxxZl1Bb/U++MloUfX1lN0HtGmSnxDLKTdjDZcfA0/yZZ44sT9n/hjGIoqiwHZtq5ZN615NtLdbvpzbuIdNwsO9fhp5Mn5z55x2MbLFVccYliRslkEwMgxbkl79E5xiF6rjgz9tR1E7g5LJE2adgEZCcdaORlBRH8r2cmjOxNxYzrj8WE7v2cvB2LLIQ4X/+jh9FP3I67VaSf/OoSKrWlbPPHGx5ocf1kjFRHXykIIggv4gFUTX/lPPb2KnQdJI4GQPMWBOSDKitA/jUkR/IWgYDftZW0SfppCop4m90giyscEZa5tq18s570qT8zTdCf0fh7G4xiA18nKhaDTP6sKWVoa+6wlNtcpkIfgv4pAOxhO7HZmF4EXkrPgtOSe24MDL+VeYXfRhTnBoE9ak6lqC5uqida/XbEoRwVv6S5W4naZ0aPHcMuXkW9dBRLrmgoa8atHbfUB7Xc5B2XU51l4vtxM5eOrc7kM1NAdyACKHJDT54bqUtBQmqUvD2DX/Q1yzHigPpdW7CNz7c+dONCBIkd11HJrUjdudA3fZ225k0c3lAUlZCy+6NOdCD/BGbpR8hITiuUAc+f5UztOUh5Vscsbaa5GxHFzdu0uSiStrELfgiRwsHEMCvC3LfqDrOu59ovHGrcjWPlm2e2XhK78dkckhHRBBX8Rx0u6QPplEZFfgQl+Psrgubt1LSkmT9mhjBoWCoe4uxrCzzN9pejRgJfXR84KyZ9DluMRQL0d9XQ68nHrck64F4dii5x/hEj4sC0/Mii+7LPWDDCSt1jTqDOGqbPVC37ul2ZOst4bd3ZutHq79KIDIDGI/W5fawVoLKxARG/t58ccxZTy6VtsTwYSkIYaJwgCETM5vld56x71ariUwafCQXOsQotqPor0GlXJdvrLo4/+H6nJG2rsPlDukfMFw5Je6rP3wFo5KM/FGIhJRhAvswMuhabHkwpbz5hujeAy3lqTKFfTwFkKTZmd+r7YI3XFLmii1T+CPkVJqk/jtLsNLkgMqCjOTaEC6oGIw4sUAWTRa0gF27IsYI1g6APqsBXVTrsmZJSHX5bwampyXQ9NoS4478+DMwrljB7eBPYFnk/ihDNpCzyR7faoIdtM9mpmFpiB5yrIk7k1HAWWXOvteM2x+pqAJTE1ymNoH8JwhNCOMrkiQ5Bye46ZrRXCAKpbJyym9FJTqcrrKldR7QMZy1K4KSrEc+L63xbeKMtnjpEYzIzMreHBtS0xJKOQEbADtsGfh+jl33u9FIk9Q2z7as66Gi30absjrTO4zrv0pVMcUJkdOpULJ+BibQo3YloWfixgF++M87d5un1Vwtg2S0AyDZ2u3OgweIZ4Qt6SXu9SqkV6ONlf4Z9TllOzl5LPlftxqtY72pPtBg5NeFk3o9ZOO539sigmZn0urDg/lqxy9NGEisIODIWksJ+zljD3NwUPyogTqoYMjTuEFwXeGN0S+9CMZLrufnGG3rvS1MbQhkaCHrUbJsRyDVwUtP2ONJtaa4WboQ0rOWn4YYsQqLxfGr6QJBJRCpeIP4Lfkl5wua/UK5kiOcPFqSJGbtS0McyEW8K3j1lSOY+xRlkj3F+opnsrYs5U1pUFzbsTRl9ijfE0nIB/aC/KMyfIwePZV1uWoFRLyU17GcmByWnB66JJDKCAIfrgT+ockDBh8Yhwxw3jDTbNmK5O2zxZ1ee3vthKaA8FuMuwn508dazusxHlSpP2pgREuedDyvBRCroQtOSqxvWYlnFrwOSA2sTRD3UKlheOkPSsj30TGcrS5woHu9XJkW88StUk3qMVQFpQFgqtETY2kyUmSwVfSGse7y3vjMO6v0r743mc97OKSG9RK8sFLjXKQ7nCUrL7wAufU6UDy4ixahXhEj0cNCNUkqCW/H8lJ340VmsG9HcLkDDAqkbVel5SXdCRK93K4Lue1VDEq8MOPhZwAmWyEv+YJ1T5Yov57uFmpYBhrY8ejIzGjywpOT2Um06BZWQIfk3SDVAB5Qq0WSRJFCmVW0QO8nCZOSmrHOuzFj5HrDKFcihxcHDEl16fsZLJgOjZ6vRy1Xo5zM4Jb8yKWM5q2KMOITI49E9NWGP5383cZKS5i+njJjurNZibs4tpnK4sbnRFde7JMB9AsCQ6oVocySZrkQRoi+D4kcJcbHek6VSqbMqOgaotWJcwsGAB3eUBT9u79ECpth8SNLFYZX3jycvR1H7A1r5eT1+WU2X2AhgTjVpxMk+n2oSyIgFAczgeqzkO67Y+n8jFcYgxq6iK4wg69HpQCnpJaob+IK0uztTRAcYbLcGn8uO553iEcZn8tuqaRCU20QgFNYHLkSIiy2pLB8u4xHHQKCZU9sbbMPdbegJsexuGH36Wc4NZLplABUCCObUVUtJXEcUgTsDYNR2g+49kdOYa68UkFLFWSlYmsHg3aSWsMZQUoGRLygDExTafR+JZcoN6edeUczEglSW8bMinrcoZlJ0lTxpqZQuKMzjbLqMvBxSt8T3g5RzSD4Q7tWwiFlyW9mBLcaQJMuq7S5OC7/sFvUr4rdMLYb4jOarA1jRu1AOOJPOxHNopKQXeKHmsu9A3GwHCFb6NPT+eFsFRPbM/f8ff2nSpVAkqT4xwEXixHOEtxOSoFXo72TtJa18vxP6yVZ+AwmPB6rcQbWQEBJXJOXs7jPDuJxqOyWQnt7Cz2M6gamJyvXpzk/vJM9OLpCnVHcyMMcTAOddxlD44TTdb5H8KPYbi9smjfXiS9bHSN3Wi4SuEd5yr1SLPQmS+DUePsSJDhKg+z63LKzli7wii1lQyimZQTS8APngrLvYQoQH4GkZVCgTQwPqVkNpoEebYN5+QhSR3wm+/NNvCME1wkH/61I3Okw3AnjPF0Zz1rbNdorg0WKokH0B3k/PakM01ySD70rPRYDmWsmZokrbou53i3s0WxHLIVhJxYg5czoeqZs8SLrOgCwoCxibyocZMMwrBTgy2p5NeeujtiuNGRsyfL5Kp8HcSNPbgqcmJtU8Z36ODHONlLA5rxx1AW56URLDRU9dxun/3L9+QsC0xOs45DITaFyRljvFLCN15vLOdadyznQLTCvcViowQOIAq9LLJf9K4iM/Pk5djR2hf/UM66w4/eymgSBGoFO9Skycnz2chYQNecxbWAZsy8mHoOy7KLZowdH+BCT2nWlnYTUCO14PKeBjTQUTgJJVseNcvuPmBwLKf8jDV5tfLhJ0H9HGWFzcbMOwvDZMvuUvQWQnMH2yCTiZ4FqopBqpwK+Rh+wJXHJcDhvfHHTYxKxhCRmCpzHmjADA8ar5J2orEIvBwI14uJNU2xHFO9nLLqcp6qpRy71vMTcWtbXnMnTPq26868KYQiNzm5l3MQiHj8rzCP7fmQqdTeoPBfll97UgpQPXCL0iT8+OTlZA2oj9sUQ5dwCu8aNog6trknVfJymsI+oQKxR3g55Efdkv6p0KhXTr4ph7yckcZYTm5ytMVyKGOtTG0C+5BQ/6tik7inebPEk1GWkw2Z6Zq/Di+nLhPQ7JS8HXoSbnIvrm9R8Ra8nGbPW3bvKanR98/W9uA6CzFKgwlEr5ZQTOf0ycvZhZcjxz0Y9VYhuskXjuW8Gh0ZazRf9vwFhhKgHKOgE2VNmcUop1hpFR2aWIshPC9mwMiGhH6cJHEY9mie7L6zteb7X5IslxBKlKRINPwmyoLG7o3Yi66cYXDRazWkWNAwiJLkyk4mo4y1rZdfBnNQH8v5Y13Oaafmhz1hUUZ72HzE0xT9TbJ0w1nowuTIhEZZgPWhNb/2X5ftS0qr7xXDDZgciuUsLHTxfaWSDDoxVXIkAxFRkkrsQR7cAEPYR0jjyaJowcvB/sdkcqQfleufJvU7pxoM9V95vXU5Rcaa1vVyxuX2WMP3+zFPDCk4eeHl0OvhZowLiccQoGmPanhksKdGIWLp5UwjmjFb7UsvR8pZ4lPmtHtluzA3rkNTK/By1imX2oaUHonZpUNjXz8Z0Uz9QVCjWE65E2uGx3JKzljLhyFPJufKOozJ5FhS59DTJEhwg67s5Zd9Yqu44UqTffJGpDF+9yAr0mfxpSS5tpQQmuKv97Zljj2FjXCmjRNZzUUZKdLkyEghRf7KxGQvZ3S2ua28LkfGcoo/mLOMCwyhoGqdPBuABrQNL8V3HOLR7FFrV2dxZQrT0L9xJxsTee3vh7fwcuqiQ+lsuTMNdbNrJZsfi4k1mlBLPDGiJgVSHLCb1FAnC/ByPrYuIG3QMZQ+gLHO0KKE+mw08lrhOCvaQqqE6nL0rwpa7vf7BRq6D/SeNYTk3I4wqCgmUTB49T/GF/ljjFZpX5gcr9A/eLkXTz+Tl3MlYzlkciZRnTSFPMS1Hw6cE9eCtOQ9uQovxzmFQmlhzEK7yRzqo9Ib3nBdzuuByvjGy8Gmn6XQLtu9fOrLpnEGdqBUkOZULMLLOe/a1x1q8wuNAbkJAuolQHMlUA9Z/GUtlVfjcsN2nVMMfmnSlrJoDyiWk1kTx7FHVLlFs7p5FqQ3T4QrDdNjOWoz1g4oCJMIKocAJxtpAh2fUiZIK2lLoRjhqg2+Ts5JYFrx3nLuxJ75eYL88cEqXXs4SzITFk9BVHrxIameIdXltHInRdbyeVHkTfFueO2cpIEsE4Yiwt/xaxiTy4k16eV0b6nafESRnzCMZV2pWuDlaGxRMe8krTWWU3In6cYfTM43Xs6JLWIyDPmVPwubXtDdlTs8x3LqKzIv4HPD78n+SLspRjuZXA3Ktj5Tz1fYlClNrNFueSwH0tIRfmUsS0EnchhccvcBw+tyys1Yk90HqGNrvnlPEZt4YEG71KlPJwRhhmvuQ2gcm1ISc9fkZsUTFkYoab2JnR+gbCg7zb6kkUpzfCSvhmtRBbIz3F+R2ZAYk5I9gp56wEgliqWLDZGixMr8rKUi63JMbesJF0StkMDLWYulESBoatVPxJ3b+Sx9H3qmEApc5q91GB+qA3aCATUxmV/721VoB3g5c5NzGCePcmKN6nLG3i3sP4a64TgZWdS+QhYLO1+nY1JKefcBuByLJ5TGT5YmPXCGeED1pzTBFsZQNardHL3dB/JO0kbFcuQ8yP6L77JDkyiUfCQnMeAGkU0K3EvSGGEvck9pYp0mUcjkwD9pbo9yaaHk+vSaEme9JuQgIFmqT8nSUCyHVBN2o1U1jujYc5cGvbKomGbiSu+xZnYsp/QeaxGFf3GxnMuDYZfy1GQqdN4bOl3c6GzFm1QgQcMLea0D5/JmJKPCFPrDCNdy4R3DUFHhMBwfXA3aGw7zFPtcuvb6NoYiVHhDYaN8FLQbPPofSWW5izQoib3l0pOkpxjAGuvlqK7L6Qb4MveylDxZXHcMRKee9UAVd/HvFOXHcJWEgqblu2QQpluQH8feapAd2r28wwFZH08tjmSjAKlE6NrDLTretdbCpfBoPbja6GDUG0LI7qRgpJONzkVcoWY47vmxXfMrvreIX4/e1aeMNSoDa0F97V5B7qjTieohhN6MNd11OdXy18vJ/GbSX6QlTArgrE4piygf0cqVL5K6J6J21mxKwYDnU5dtKRYWLpepjFwaC5ypOYauoWEtnfRoTwjqceJRJz+avkv6NzBi1IcpnyEhc0Vz/BQWjMdhQ5btlIfBsZzyM9ZoOh3DSZpQj0RfeBCQBBeRBhVHfpzUaMGjjxV/LYU5sdNB0ss8WtuCKoLt7kZExeWwL93gE7RNZh1Q1wqab69hH2leuruBaFDyk5zPr0NlyEJje4t6fWZ4U6o49zU0vEnCpqGzr2X0WFsWvQ8hLmMkRlsiq2OAMbuScbn8i+1N/f/+J0wi+5y+7PGYslcp3Uz2ThLiMb/2EKJPslEOPNyrKGk1s/TqfmFoHVWWKjHE6CKLcTZxdylXgaResF4yrvw2xm5Odd+DYaKMggVSOhBAyCQ9qEerTvd6lHxoJXhUfF5FyO4D5tbldEWzVG1yQMOK6dbLyD05MXFPJseDE+rTOI1lM3qaIYWtOLX72GFeCtorBhKUNfAhbzMu2xPgANDbg8Wh5XMalO5KkoGBUZG7SN7NOIQgZhlpFkHTc+UxSzY5lvNqDjBi/NdOOIYcnPlfoP57GEc6Vco7PNsMcfXkWgXbdIml/ODSt8b+Wf1zZ9eZRFNZ23V+6i5n/k4sbIxJA6+Bs4B4SgPdYYf6c8mhCL1V0USJKsHovLJB25hGKmWnD2Rjf0XbAFYr5OX01AoJvvKydQld7FYLDmybAv/UzyiLQ1z9mFZNGstemxCKqb8zpqEELWJxlF/7ZtaneuKgPW1Ni1JQWkCWhhsH1vbHpTDJppA4al0DxXN/ReOe0G/J8/owZffHtudXxhQQJkvTpC6y8t3xIuzRMPCaO8WicQrRm7GmPZZTtpczhD2BNzx54WAc2xYtsTeft6eLCXeEMulzPQCzkc53gNBl9Xwh0JOrdPC7X3RCucL1pyPIx4HlOsBuGR7mdabT3HLhxDO5cEYjaw+mCTxmxaLxLctmr5dTdo+15RpMRCh7V+EnRqkW5R8uOPvrU6kGegnsQi4JZHOa2BOykBZFeslU3JK5sAX11XvAI3cmqBMW/OKIComd65VBRqIj36o+hbNMbzu8o/Ym1MqiljXyMUupwMuJTfVy+meqxyVycIHrTDIRhq08iZWeD9aT1njsN3vJFGIhiyNcC5c+bE6jO8dxlz/JLmhSV9DuEa3zWYgKzbO6VfjBexAVjxQErMuoQ4lnNKqlUq4Ywobzwhk6t1ew1wq8omN3WcjKjWp3+RMe0DqiVThNfk/cyeXQ1aG3+4D2WE7ZGWvUsITqIl7Okbt4zprZT3b8fGKJvWwty1POgHu9HKVBrl0CHI5RKp7FqbDbQJqie5itelYvliKm3XDKRfdk4djBo0geS+XLwcphlrUjy0r76ZONKwcZGc4/v2lo8HIcezn6hGtFsydTiEK7GH1gJBnR0sA04zaXhOpwP6phT6gRyiYhwehTigA9DPqegL+Dh/BxsYtcUphecElCAhp1FCJ5SfvL9d7o7BaeI7GhI0tEdpI2NpajeL0cXLT9VJBQQCKm+LIXa0gv3A87cr1oT+Ci9ecXeBZ5h4VCoEocXPwaXB566UpeexKduTqiJy1BikFA8QxWbg7IajjuLaQBx+G8K31rH/rEDaKa1DjndOgKzn7urN7iHIt0BKSnVpPDIJVIL0dbjkmxKqjO9XLKzViryu6scp2cJ2QjWGlFChx3chfcBNdXxXMvdnhx+L3j2va+vSp1BR5TAx24zfTS8fNuOHbj6eTO0LaDfbja7sbDHz6EcizusfYG6JLTtZL9biAKxYXFC92N4koTB/JZCJWNPfcn7i6ZiFPHfcDlXcBjx1mdy4RzebV/QxffkZNl/yNTxSCIBGnffsAzVxtSskrF5Iy1FXg5amM5dNHwlcelviERmMAE5Nzvuvbdvm1PVq/c1eerat8UF/9Uagfqr5Vf+wNc3lxtvJQCWbJld25ubor9oC+u7P2bjj2BPDy4u9jPuXQhefmhl+4VKRHZabY4orsxKcRNIbIuh2ylFoLsv9LLKff7/YJLmJyS50x+Ecyuyyk7Y+0XQWasadMmWpF1OYpNzq+JrMvRJiQ/I5Yz1te32mRm5sZyNGSs/SJwLIf5IbIuR5uQaI/lOCXX5fw60ACWYznMd5GRYY7lMN9Db8baT1kv5/C62GDegJVscsYa830olmNqjzX1dTm/KIbX5VyKZrhdNDFi3gL3WGN+SFAf+yscy2G+h/l1OeOMvRwFGBzL0ZCx9otAsRxD1/Gj9XJ4XKICvV4Ox3L+sZhdl8MZa0qQ+a+GJkmr77H2iyK9HH091nKTo3W9nFLrcn4dDK7L4Yw1VZicsTY62+SJNRXIHBONsRztdTnl9lj7deAea8wPMbuTNMdylKDXy/kJ6+Wwl6MGw2M5nLGmAjn72i25q87PgWM5qiAvZ6RtXPITeqyxNlGD2bEc1iZKMLvHGsdylEBeTlv5wm//Hz+jLoe7DyiBe6wxPwTjkqapdTkcy1GEzFjTlmPyU+pyOJajArNjOZyxpoRgOm5tcV0O8z0Mr8uRsRxt72Yy3GON+SE0+2qql8OxHEXITHrDYzlcCqoA7rHG/BCZ/8qxHOZ7wMtptfX1WMtNjr66nEuO5SjC8FgO55ioAF7OmbmxnHDKE2sK0B3L0VyXw90HVME91pgfQj3WRsbGcnbYy1GB4bEc2X2AYzkK4B5rzA+Bl8M91pjvI2M55vZYk52keWJNAWbX5XDGmhKkNjHV5HAsRw132VhnjzXddTkHF9x9QA2zJGyamrEGV5i9HBWQl2NsjzWf18tRwr7p6+X4mwmbHAUYnLHmrPg77OWogLwcY9fLaVV6LCQKsMnLMTyWwyZHAZa5sRxXxJxjogSTvZyVJsdylEDjEn1Con+9nDSJvZnLvBHHoYWoTdUmVhJnVvGbMq8GQkKdpE0VkoyFRAGOs6w1Y017XY4TiExYAfM2bNteiY31cpyOGIio+FWZV3NlR7GxAT/HFgOPheTN2G6UhE199cL663LsdCQiK+XbG26RZS3aozg8M1SbnNuWgJDgN6Vfle+vukfWbN+OemHL0FjOwsTaEhGLyBvu0CQpbE7UgJfT1dVJWnssx7nrf4I2WV5epn/88zU/LcuCm7MV78SpqQPYFU8KCX5Rvr/2bgWrZns5Ua0dsYi84U4aBZokSj42DV4vx7GyxJvZrv2w8bBhr/LPv/PTzR+6tusOu2myGZvay2Q5SzKLZAS/Kt9ee3MPLq0kbK1ry3/VihNkySBdffH78u3v3CYbE1Iorru7PNUay/kJ6+X42d3C6cLJycLJQrWK/6r88y/+zB8eLzgL9wv3BmesOSIeZ0E1l5HzE/y++Z1u80fz//mZP39GPl64hckxtvtAHCZBtfr02/Lt792gSEijLBwH22HL4PVyXPFhc7tTbDBvgDo2mqpNRv4m57+q4MbgjLWouRPfFhvMG7APza7Lqfnc8EYJs2TT3Loc/+M2mxwFBNPwrG/o4gXC57ocJVzTxJq5Pda63NZTEfByfFMn1kY0Z1JsMG8goPVytCUjaYU7SavCJiHR12MtNzn66nJk9wFeok0BBq+XM4SQ8Ho5KjC496sTwcvhiTUFyO4D5tblkDbhXiYqMHi9HKcfcydpJQR1DGDNrMvhTtKq2De6x1qVMtbqHMtRwCzZMTaWs9XicYkSKMfE1Ez6/hfuJK0Ee1tnJ2n9sRxeFVQRJs+Z8KqgiqB24/p6mWiFvJwjFhIFyFVBzV0vR8ZyOH1AAUbHclocy1GCHJdoK7nQirPC4xI1yBwTc9fLcXlVUEXMkk1TYzldXmNYEUE2NtnL4ViOCqSXY3BdDnk5vF6OAoIjo70cnn1VAXk5HMthvgvlmIy0ucLaYzmXPGeiCGgTY+tyOJajCNImW8ZmrG2yyVGBbfZ6OQfCH+uLHJmMwbEcylibsslRgMlezsoZj0uUQHU5Bq+XM+SMNUXMoE1M7bHGXo4izM5Y+8ixHBXsZ77fNjyWwxlrCpiZ20l6KFpjnn1VAbwcY1cr75/xxJoSruuh3x/q6or0E2I5nLGmBhrAGhvL4TkTNQTZ+MvI2FgOC4kSKJZzYW5djozlcMaaAkyO5cDL4dlXFcDLMXZVUKrLYS9HAUGms/uA9rocylhjbaICiuWYOmfCdTmKMLvH2kc2OSrQ232A63L+sdyaW5fDmfSqgJdjbI81HpcoQm/3Ae2xnOGoqUibVBeqzktO3hb/Oqn+4ZtZrTrV51NWF07OT4rHf+QeB9OeOOJE39cbXo6xdTnGahNnAZJaPNZBMDW5+8BmeRlruXbB9XqBVDPFYzVIcXimeJbevXgmp3i2LKSXo83k6K7LqSqry6k6rm2lUX+rvzWKRD+ybPf1l8Zxrmwc/+IEzqVrB8+ndPBu2PpTq0Yv2SSerr3/lg/xN1k2OJYzgpCYaHIgIiRU+q6ajOUY2mNtdFZiLIeuVPBCAUAD2IFlBUovnjxnFInR5xHUWLo/nwGdPy9fSZftkmdGZSxHm5Bor8u5VFaX4wbrWaN51mq1Yr/1Jc7Wg9dfGcddjiLrqtgiHNsSNWFdFQLmuBasmvunJufSxrE2TA4Oid7wIf4mJtflmJqM5EBUICIaTQ7NmRhcl1OayXHvIi/b6wfPJse1vCTxLJUXz7FTL4lbMXRYy497Yq488F5iGsunW3GcbZVscwzvsQYvR01dDr69mR9WwjnxNCJX43XgZN5e9NL5Oghw0XveXOSww16GN8i3vsE5sEQmsKPTiT6N9JmcZXPrcijgZ2QsxwkwdNVqcgzuPhCV2KLiGAYm9pt71sNcATiBF4dhEt0p/Gu6OOd4J9zMNZifjGz3lJ53ApGMNz8WTzcH6Z8qHmXI7gMGx3JU1eXACCR++KWXTOWtFyewGX8+8/VjqqvRISxKsUUMg1pcCeMoVw8nEIKsLuw/jeZAcDKyTccb8LzLFY6XkDYxNZYzMtbLCayXszWlQ8Vb5vZYK7GTtJ1iQOtPxZ1zL7fJyfErO7HoKPxrutbA9/04SaDAsh78Gfg5kI3j3U4t9j+06OlpEvcSAd+qRJmBl9Myd72c6mXbHx+qyFhz7P52M2lbQU6UTaci6MpBwt+m6tz19zLx0lx0g1qrUolhSqQVc4JRhh1y8fuWUwhjVgu65xBLV+M8veHr5ZjZY02KSPFYByZ7OaMS63LOr6LDuBVPR4F7LJ+gSZWm35yuXCss03e/ZnHDi6QOu7VElkxFZxfPO8GnRpyM5PPWyPO8/nKZwwbyckYae6yRydFYl7PbVxTLIRmgqdXC8XCtvan3NTcaJwdXMvZnO3Ov5N61O3T9rifPX/giQDhxnKrjzrykkcFFmb+KgYZIPmx+qOeTaef0blnfluKXHyjPj9fuhx1Rj+viBtbGwb97Z3hwWZznxDkYduXj80v7jg5xnz7Sm5lhAGtsL5PWuFQvB5cQ15ASQmjj2Q4UD2WaEB5hp/wi0xH5dr5nfvyzvyKzS/InihNhZ5KRP45BHAey8fIMT0eUg9nr5eyUZnKqMnIz9T7Npy12O+tZ0ku8KJBxdlzfa2iU60lxuaW4TOiSzgWGniUZwBV23d1CIzgO7XLTKeTGtbLkabresUdJnG+R8sEAWj5/bFtiz/vzOX1FmL5ezoXvK4vlJLVgPuQ4CdqZlwYHZBTcm8jL6jARN/Pr5AZiO1vL4Kg8xVoc22rjCS/aH5LTfPTBl9d7fj4ckcT+l0YRL3TgRh1+ts/lSxiP4Oz1bD3AiMfd30r8sY8zTyBhi+7wiuZOCt+ItMoqyehlIKb09gpnZS2DYzkrqnJM/hxcew/isJdH3rBFmUjFC3joSl0RWJAiyEexD6UQednhFg1DKVGEBKBmFdKUn3CaeVZQGJRA4OC1x63buVWS0ImlncIOGMOsTen0ZV5DOftqaMZamZn0VTuli++JKFf8jru8BSckw/auVDEBhGG7/liYAhIP6yvJC2mdZ6EgRSGiGY0taD9c9REOyygEQHu4qRw100PgWB7egPSNc3MxzUarxdM4Zq+wP+UgM9bMjeVcbkGbLBYbb+EEJmfq3T5dif2oNlcPi1EWU+AtmQsEheNkKC5s4NpJa1B1A4+e+z2L7q7saNuvVDbj2rP/Ogz6WZY0aHpVCosdHe6NZCzHDWry7Dh/H6YFDlIzrIR+FgVB2v4cXO2nYuu2kDCriBY7tvwA4/hQ3XDF5FhOuRlr5NTGHz6EfuKRwMiYfj6ywGgCQgTDMBPCE17ih35dzrfmJiTGcCl1F04gAngpDGMcX1xoL/ZxxmKUCp0xypph+MFPLp7GOAS91XrgVqvD61HSDD9gh+dBUBnI7gOXcqRkGuXGcq4whvDaEILcIkBkxCFskEjl5eoGn6ekBPxteb3zEYaXSaFIigl6KWWUFJDVLopMVuihbXlYlseIXWuQHKbF1B2ZqFp2uIJx8im8nKfIsXy6VJOjt/vAz1gvR1nGWh1ezvxK4Gp6cD+H1fs889Bv+h9IAXRPSSBGme/7v/t+2KTZM9odQjJI/GaziWFGAPPihx+/+fpjVFNrk6/UlsoINoO82/zAaQtnw8niR7zmLkOwKtA+VoBBzcCyg2jgRXKkg4PwmYIDuNM0EYyPFOPdXp9X9y1WsmluxlqZ3QecjZnIGiQOMQ1JMSCJaDSLK4brBKViu7jGWdzDkAMXDRcWu5BySOKmnwzokuPlHl7ypcQ4J+dyfxKwOCFxoesNc4UnWr1BdP1iLtWF9riwJtgBMur7X/xYGqnyrqLROSYldpK+xxWEUNS8WnoFg+0M9y1RG3g1SEf33HFuMKglJRA26PsMpRBljcYayUtYiTNcYBwCoUhafiueJnVyf10a+fZJTLBTflg+sfY88UGCCOMyxIhFwN8pdDLezKsVzlY55OOSYqN0fsJ6Oa1QiU8FoYCX88LkYJhBQw5yZ/FQiHaWyIlSXOmVvbXMGwlBz4hbCv/ACl14Ak8NsKtlWetZ3EwuXsyCYAchIox1c9cJSmSAk90fu7c4S+Zt9fOTBa6LEW4v7nnWvo2PsGfZ9P4ilzpoInym7hDySyMkfC4SvicRextG1+WUOGfiuKkYQJ9AQLLp3gpshtuxajWSFDdIR+SVOkGtSf5N1KepEprroIuc1HE1LdvFoOLTIUbAW7BCkEDXuaRptcGnPp2RZJC0DUQQMoLDxexZqBYcq00C4Nq3JHjYYYAdvp17U0uQjf11bdpEK9LLKa0uZ/K17Y0iXJ91+ro6V0EKZdAW62mwW6Xvc72e1US7Dh1A32cMf7/E0/YW5CVuklbAITalA5COyRo00nQXXBqIZIMapIIKfGDKpJdDSisHw9eaNE4Uy8lGhclxZxFZuhK/6TaExNxYTrX7CV6OCp+KPIcYX3CoAwrJ4gLX8fWvOhPLw9Dk7pK0RNLwlilSA81PzsXlXSrtkpQH2JLFYXf1NhIjK7BhHGh88ZyR5lpb7VGakqCRTJzYWzQDu3Du4hRt60qqJ28gR8APkbdND1wKJ1kYIkftWrQPEbmEJmovu0Ny0kmyMLaF56xqJsXg9XKok3RpGWsYCGAI2Rl23WD9UZqIcwwkhZjZFK9Ztt0qdsn8naY3c93VtC0HHRCm7boUotNd8qdHuN5dO5rSoOYAFmZAcWZIQH8rvYMEpJ7XD6S3s/6NyXED2DrL3uhgBwxcaQeIX5kmx+D1ciK/vHGJ9HKiSDzKKa3qwaIVYUtI3e/Q9xkDkauDh3QAa4LraEdJMy7kZbpGygAKxKtn0d2l21nfhvNLI5v8MNe9ig578I9pn73n9AHgLouMJvcpEJB4tzaUGBWpXwgIVbFLGciMNW1Coj2W0xWqeqyRyYmzC+oJ8RnigFEjXTxnf2uw19+nuQyH3FZSDUEU5TOy1SuYCZpqlf6HRWHVIXWxWHUxTj2MJrRPAXk5W1YAf1qOOwovB1KCk+URnyqkUpaP4mQDEiD8f+hZDwe21X68oDckGYMd695Fh9ttaWZdq/YoP6YCTF4vp0QvpypnMyzKRT2212mggb/hEE5vP/06El9loTdcZh+qekPuDZfIgnyI+t5I+tQPuKokEsCuUWIRCQ9OQ084N7cBzctFg71U7uEG1IjpKXV/CHMlrEU7+AyFJp0PN1i2h+VdRbkqKP2u5gEvp8RVQd1IwKWNvAG+yffH9K23rHTUpmlX6AIvq8nrC1PTg5uzO4nqZwnNhEFePmWPkX2Ogeggk/P+uzNvOq3B5NxEh0XCiS2SmDQTjYpfeDnHGM1Ag0DbLIppnGRCfB7RPItHI+hinzLY15qxpn29HNlJWsW74cLX/TD0W7g1W60zDBdkbQyGo1n0QHtUb0k30ODTnneMsKPaXnSHZ6Ak8jhQtbvx4HYd+yt0wMuP5VojjD9tCgNlfXt3CLMB+3IC53d+MjI50nzswiw92bHlfDRzCIEiM4VjuhvkQvXlybsYWOMYJZn9BtflXJa4Xo4ziWByluUfzoXukHOzJ1fQLns0Bp1QqB3+KkYzFiUXy4sa2WRVirEC+dNFNHe1TwlKD5SZ1M4/rkNZ0TSv5kVSSpxhnlVdcDDD6ITcKbJjMmBLybWvLWD+C1AsZ0Xbgo9acVaa4bSsiTUyKwImByME8mtW0/VoFlgrAv6G4+4LfK9lF4JhdAibsehi+NujxBL6hkt5cS73ozz4K2MxHnxdCvgVIkSZajSAda1HOTFXTK6cy6Ly3MvpjcOx32r5Zy24SLfl2gN72+j1coZkclS8G4XsfOoVMQ7DsPLbTiz2h1AXrjVoJMKCXbiyo701urAU/qOiCncCn2VvgGcop1U6JgTli8iBSy4OBbA1NZzGnXw9JLtF87B7fZlDcu5cuhtXrh3QvDwJlTurZWLmVDGEpeEvaZwk24JAYSzbtjYo2YWcbZxrI4DmysfVb2eWbJ4ZO2fSLM3LoaFKDJuBa7g6W58nqZJEJL06NANt7HbENGnLBHyZLRsFtvUJRkIKyJ1IGvTM1erD7ac1XHlYkKjtRcEDWQ84NBCvlJwZe9XFYOYbde/MxCO8nI1OHu/DaKfE1AGCVgU1tuFNud0HKAF2Fol2FLhdO7pYCXCZa22YnMtA7NVyWYBtePRGgW1/HWwPSJCOd+/ygSgNO4Q0Qs6D1YcqkSZHLOeH3YpsEN3RdO3LibUTaZXIy4Eb5Ms2ODA8rSlEqVQxuTscG7xeTvWAlmhTVZdDKWDTLElaYSWsW/lEhbUXt3rZIdzRLGn5ibjDGA/DCarh9fbqSeLRqCWAAXmp+R27/4cWaq61VROziSNn7iOoFWmT6BXHvhW1Rzp90eUPgjP4BA+rG7Sl4ww5nNYjWCmrfREFMqgUn8UJfYDH7biZ1DpK5Mfkupzyug/AHohk7CcZXY7DIz+uS5ODi0aRvzxKe4zBQj6agMBeRd4hDIwcqW5gyEGTHhA7eXwW+/EjjUesz3Bs8UR+PPRNVPMyylHIT/6EG9RwmskQO3zCgBY7BCUGcsCtua6wzFgrbagsvRyqzRpt0VyH8PrS5FBUhWYx8jzWBQcG5iLCAJem2qQ+cRcjjDNpiFqrCemdnLpWdDGabUzkzIpLHo0T9D2xIiOELzPWqLFbXZqcDkzOF9Jta1PKS0nndWPlIGdftXk5+utyRn5Yvy423gJlrMVTynCmVhF+nAXSPXWg3zE6+EAprOFO2BNBFyNVKpvAth+O4+yr9EM8DE6er6JznQ6+bXhTeDk0S0LDlgA/B1vST7ajx3iMc41DPx7QOOYS7w9ZIi9HzsQuTKhTQWDPojalHlSHMy/ewYAl/wQ+PpIS8TG6Lqe8WA4VeWOEQlfD//BcIkH5JxSXocf3w5s+rvkk93IsGp3ckVuSvzoZyfILXEn8V/Flzwo4uokPmZvPuLmUDosdZIY1PVEAL8e7KKSq/rs/9nvY4c+6KKlCapOXn8AcnLTMWA6cW3zr7UXYHPw3E4OtANdMtCmFHoaiuK7Sn8XrNO8qL73MZvMil0wOpQrQPjA57S1rYluPlFggo8w3FCmCyZl9E8u5J1cb+kkmSccZNby5uQmgej6R7BU7lYDejLWfUZejZr0c8nLWPslvOHwUPFyWQkAuBal2uvu/U0qbjNwcQSHIJ3sDfOMhPJkn68gLHHvrcK//jclZhpeDXeHtkkWJLByBcW8VQjaISbvQ6XKFcUDydutUu8u5W7zgUmAoCL6KGmXcVq+ocqf4RD7VAb18n9dDsZy0eGwYZHJKi+XYWw2yGPnleFrzAo5vRjPuUp7cYAVXcCPfncYPN4ukgTpUtIfjpz6MRX6COBG35EZfRRk9ARPT2ZViOBMxtltQRO58qh7kXg4ZGTfweqH/4Xd6f2ehtGALxiV+e7J7eeC67sFQ/usO8fPgctcddt1dDL/k7WDY3b10qC/LgfM67h0HLqS83x/fn1ar97QAWXGjx/hBP9VRZpI0LigVw9gPQSoiK7Bw9eHrFF5OOpAZqtitCsuC18nkHIrOKX7HLsamn/KJ+MLHJZPjjayNSZpte4WXA1eIKsEoSZq8nEJASNbkRC/Nk0znI2B4SdhLnqok9Gas/YS6HEWxHPJycAnlX0pOqeaDUAcDh6M1r0bzHoKkAV+oW5HF2R49k01lv2lc2+dYDkFPUPil2ATDWb+WT9iedkSWXazXyORQNzaR5LMqXj3Z9tKNY1g5eDfLQ8qezU3OJc3jWhbcpLSDr5tr1ZJecYzopzNbKqU3M0vCpqEmp5pCm9wWG2qha0+ZjvJqwAu1AmpPf+883EJHYKBAl+ac9MZeX3o5Tp7Vtmi1a1s37jnEAeObXnLokYgJSrC/kkqEqrG8PbjK6eJTRxTPO4QZu30Rr4GXM6hZMrmFFJjcgSqDlAjEn9HJwnAq20O+4KZD9zsMoTvXncXrjo27vbh4bROLuP0vlDST3/7I7iUMV3cImzU8KIzXcLcwQ98BFgqWKTdI1fNjskd/F6tX4no5uZcDb8USn/qURkAz5alo4z93mdKSpMk57VDPEzI58GmuSZCGuO41WBE7bT+ZnFkk4OVsLHt1PEPZixjfyFYp5C+9rMuBFqp7M1d2H3gqBcXeXkIrs5B/VArXhvdYU9h9YC2pBbJl4THFeOH64trhKmZZSpmqrnt1RflDpGPowkJ87AhGAfJA1xYmqrjU8GQce/Q4oIS0OVXycka5P0LmaOBla49fqWyc8p3Iu7Yx9Bl4lOFEb0nzd0X6AE54F0EZbdVqo2VYJIxyKBx0K7+gk1UMMeci9jaoLqePX++Evr3m3E+giS4hJGXV5XTtaDCFEMjLgZ+y7arjLqef25AJ+f0/xpVMpuIG4lDtBmJtKjq5BrqEEaraVMKFoQy4cidFQhrGInQ6mTZANuwUvjWuNo09IHnyjQk3uMAO9B6Os+tuuJPlLdqhvHn0m+0wjC+iiFadHEV0+9zHLYpwn5PKe/HPkjf8j/++YZnuQfEwWMbtf1kMgs5NsG/jv+tgEfYst2JPkM2SZiv/62880N/v/yd3xp68MOqQ+0TV6W6Vl2Mi3Rdc8K5MNPLERW2EgUFH9qa4PMD3nErzsJtDExs0sfYVQ1jycqoHnc8yz4QCviKlRR+dVUvURjP3YSZoqk0eZl3gsA4V7CWP6bw/Pc3358lFNLFWF3kTYTxPvQieDZN6gnoYmxzLUbheTkbtR2goet69JktAAV84PLnep11c+wryKuuq5FtCWAbzqbY8OxZaYLJB3wG5AhttF8hYDhSTfPj5MImL1iRBO5EJ+Hh6JnvgnMDktKWg5PmROOIe0gWHqp5FZBHxAfoe3CE6ZsE5mCupNwNBGW//QS8YwVcrysZlTaydQgPMq2ikhKzm3eKpzVoELSFd5W5Qw+WWGWtuUNvOVq7JiRkFB3Tl7OgwE4v5NTxYhRctrU2+TRXGuTXKHRcHo1/yYuSLgGI58J1pB5dSJc+7FgUV1bi9f4Z9SOEm8uge4YRJP8x7fMTGANt/oObVaHLgEz3C7yE3PIzVa7i1L/CD/tWEwP+4FxsXoi2fIEb0Y0v+pCEXHucPxVZ/ReAPvDJax/9URzfCllihn5/7W/1oZZ1Mn6AfL5CmkAxh/l8afY3onltFmEQIScleDnX8Dbzto4RmOJxdjFjb6d1wt7N1CDtD12z4dUDFGVSZVaQjudcUyyFFMc83ohQDsjWX16O9QZ5bTaVhGAQfSC/nacrstLOFq0MDkm+9nIXFC5l5W2ypx878scF1OTKWo2a9nGLikzh1b+F8irsTKI8+GQKqroByWCfnJhDTwkpMcPFl9SZda8+SV9/GmI6SUUhQaJ+Cp1gO3olmxlrjsywl+3WB95ErVuP9ybgVXg6GOLt59wE6uEPz/X4hJ8N92LO8LmfBttKvwZ+vZ/13CbJKxY9bcXxm0r0Zx82Y+qSWFV6Uw41BXpcDvRBRwhA1iB9ZQYdKzANcUScY+GGS0j529EhdB1ZlzqxswEgP82TqhctglHfAsfI+rmRyIDTUVriIEMkgwPOUCMVyRhZcACsodiDNVqKXE2QwOXWYDupxfIj7nvzvBfKZ/3m2XvwP1qZTDOemdfzMf+Anfry85//R7dv/nm5HCZA/5H89+in/79GDGPdejMf0M8Z/tAM9bPTiBjbwo4GX6B/dCkhIlGiSP6Pwcpx7mJyY+rfOhtRZDV7OHfWvyr6p6bRlxyNB+UsnZGrIbJB6ytpkhVxrsE1J+fIZmjbDYe2EwsDnMD3TuQrDjlFGoUUcgnFzUp83vClKDWlStySCNb2xHDI5OutyVMVycAWnZHIK9U0GiGxCMY1F8+N3gmwSNEKUNeilkw3rYi3Pg4cZqkNG3CHZGjIt9tcBeSrPVRTu8qjWTm/yxTGu0qwV+ms0eLFHU9nakTzuOg1VTqrD21q2R/U38HLyMcu5G1FWVGFypJKTISQKJEIgi0U23sh+Fv5WCcOPm2G4adDP8cdxGFaWwj0V7cb/DCdY36ZrDw+Hlq+gq065SPBI8f9I9vd0bjw/bOEVmsonaTq4Wv40yD2ghe4+zcqSVqGBC1XoBJagw/DEbNTG+MWeRULu4CxG7XzcIieD5lG+m0U4VPkOeGN6UJo6gZBUYm8FnkYbnkpbeia1JwpPZs7eALdD3EFGd/zYLgxPtk1maLpGdzJA29M6/oM1oTv9a+QGRVoTMiXyFvcKK1GYirMehkjy3jxrnsmfX5pfWmc+flBNN93/CGVpjOm/D5QlSJmiY9xDSP5vJcagr+giU0uiQMQ7Fd/bd2ih+Yta1HGcjeUa2Rz7ADqgl9Rmu/eTXH3gOBnDo8ErtAJUzOLBZQD1I1vxXcHlpWJj1073egllPpG3kwhazgJe7+qyV1RdLOx2avQQw2V6IYgep9ArSsapf8ri3geTe6zJTtJqvBxBzSbmVwJDgTrltDtD0hLUQxMGJ05qgXtJGR+NrAaXXnjTpC59IYrP1Km1I5VmpsEVzFKcFAlLEliuR5Ha+epW3aDWw7B3xb53NtIs6e1BxURisN2QrjNpnoaX3lEMEaOR/Ohk57/+3GemBBV8aYWoUSvQ/rKaAUuQ/WvHpzHhUYy7GTeMcRs02PVhr0vychaq+Oof7pGAeFmy5kV3sCvrFyPKPXRW0zaUCr7lXjyOs35EfTnl+IXkpTA5zsYMG5Q74NXlbOsVJC7LBqTW8WQwISVBx+EJ+EPU7R4DFFoxBW+wDJMja0epD2ixw1152QMLN1kY1qM8BCNJcfuafk2j4h5ZcrLqj3ymmM86DPH6+tb6ushv+UzZfLZMWrFnG3Yhf5IZw5+msGEveBw84m+U0c//gVwquQAV7vixBlcK9mxuy+i/F5Bpy80ZCUlZJueepk/7N8Mq1EwPjqJ4wIXHeKEWXbsLl5CGte1DT9Sozo8aLm6sZGsX0j+R487IxqUOPuPX8FZolaWEmrtSW8+9+vYhyY20LVUyOc0WNbYRIzGqZWvzIh0n+NTzY6gseuECLio1nc0/WBlQxprhsRxVXg780GeTY6cYclISYhdjj6SJMdO4ldSsBzlQobUL/KOstuVR8QWJBnaKaVDVTEjpOG6axa1ELD+NJVyadY86eU0urTVNL0MLYpxKLe1bjexCeGuZuMPoJ2g3zhqP+GJTOwJpZZxg0PRj6Ch5+PnlHT7rGOM4P65vLStaGRSCAj+q0CRmEdGvVtoAtrt6K7KeHE8nj3LmdSSLZeilYHQhrGuYhAzGfLsXN4v16Kmba2Fyjk/cYD3rQcIoxxrH73ZJ9n6HMH05omk08poExEl2rs/7REOa1tNVEhXqPmBTXgHt0Grh9C/bfiqHtIknY0dXuMHjx48r++rq4Ar/KJI/2bCvJhv0Cl7YsG1s/4gO3XFbpGS3Rfm4eG4xf+66A88PP/MbZcdJaFlc0NnP/78tbsu40+0JK5C3W2t2O1uezSxrZuEn3b4hyvxyS0GzraC74EysQ8gJfa3hksrZ1YXzLoxH4wzXfxwP5MTsxHrM9UqVSroe5TS+eyumVBRBkTRZouM4+3B4vlB+fS+f6sA4uSkL9iA6ePZIBnIAuVYykZ9URiuue1/hCNEL5SDrcsxdL4eSkdR4Oa5MdM6VOnD3Izi3FJ+BAwwFD/c7qcmFCqQbAo/8dyhoqtzKBxJ2lGAfUhoU0YN8YORUy6foCYxUo2h5o1jDlyxU5lECCsbIg1iWlGJ8eCFk2zUyftQDBSJZVHlAYveydiFAADJExSDj5lR0ilO+mbzH2vnJ8fnxwunCOf47x/90+8c+Pl5w8BAKHkJS3no5lLaO8Qa+0jQPT9Mb4qKIp+A6f+7noT0KW8SQD29GwxDXWqeSDHm4rBKHQI3DJixO95xWLf9cb5E00fo5cGGrE8tr0AxQ/gYLCxupqKVX1KKakp3k9K8HvzkMWwNF06z/D0ESNmmFC/wK37jW2PjLrjYFsHA8fZNO5AaulrzRxjE9oh+4kvkZ5dbTTni6eJ6OpMfYqi5UaWh3Xl24z/eq5v/RDbudYmecUD7IOcEhJ3Q7lv/RcQvOZ7+sTHopIkKk9u4pFMHnLGvP8DfE9zyK8us5DPrTGALgZ1+pKR/tXegVDD+EsGSDYPjKiQ8npibatTz4N7wVddgYHJYXAF/uiynJDU5Et708n02+Ey0ySROIH0hKS/VxICRmr5fTpYY3Kt7tFN7M13x9V8n9MPgafaVeMqe7NG8BD30+gHRsuaTfQNxSZDcfq9KYhfahAj+5ixW1RfpcHYqRahDYl4U/ci9Xmt0v9hSZnG7ByWbSwrgBxIya4twsz62Ma2NwhgGv3ABwjmgKwYOP84oKhD9lRku0FY9Ng+pyShRJXMM2zeLkDWqcRYr253rRtWfBDS5sStNDNK2Wjxswrg2WOzAVcidqm0Ur3VAekxSYcwxQajQ7VCTBSiHxpHTlpsztpHI5yfPOyKulG3B3pBTRAjyLpfZ5hjbxDW1RsWDF4VF5naTx5b6ji+m4d/gq45IVKkFe4Go+d5rNjcFwrgrOHfcmmBVp8bsd6noT9QWFi+mp+WGFeaIzRhcyb6OerT09mz8vBUwCFVU8XxL2L1CXoyTPBENFyk2dz4Tl2xiWYIi069p3wb49eVIRVEazT9E453JeFlN1bHufnpSHLDiXrj1xn7NVz3E650XduHwzevXEcSf2fn4y91I+hQdXcpsOyc+AvfD4eQKt2sUx+7Z9Nf9Ib4d6rJnafaB/VqaXQ1cTZgWXQ+oPEpz5GO/cGXaHMhjjRbcT+67YZeHUcXef66mgWB6ug/1rvJhfYse5wvW97qzme9MbTOxcQUkRcnapAAiqaVk8Uue+4hN0ns9QErRejqEm56TU1cohFN38gpN45BeJvt/FKgL3uH644NIo5Zu5dlg4xk7DrlQpx86Q5iFJlmr5+tUL991VOqwQKpICiME+ROkmuFl8ela+U/78/j5GtoWKKo0g09lJ+qfEckrVJj/kyUb9wzG6x1qJVX4/BoNRODjf5MyrAH55AG977glpQW/HRq3A5JTYY+3NOO4qRrSdIEgFHOYiif59ItfL0RfL0V6Xc9EqLxnpl8Ls9XJK6z7wFyCTkw3yRBCF7AYRZSxGL+ZbS8f03q+llYK+FZlCkmV7e1k9kbOz7/giXGdha6QqxPxD/rl1Ob88syQ0dymUn+rlnNAkvJcqHhhR2mPSonKL4gkdBNAmQhaXGUe56+W8FceN6k3ZbtzvPQdp3id3xsdy/Dp7OQqAyTHVy1GWY/JKdu1lahJRbCmC1rTO6sXaXrogL4cy1gzEGZW3wsXboZzEuNmM/absZl88+z7Rm7GmPZbTpfQB9nIUYLI2Wfmp2uTY2aX2k6r/to5LjXDsbqn5An9AahNtA1itwMvZeb9ezj3lwEYrUT9KLfWipBbD63KUdZL+5bGSHVO9HFoV9KfmmByfn5wrTzOpnjiUxFhu9tEfoIw1Y1crx7ikrLocBTh0uZ3hPIf1HUP1wqOhrrQq7XU5FBlWsiroL8/t1NzI8KjcupxfB5NXBX3XsZx/EjJjzdxYjuyxxrEcBRicseb83Iw1g5AZa2YmScvZ13ebsfZP4rpueF3Oz40Mm8Ms2TwzdM5k2D8bs5ejgiAbG+3lsMlRgOw+oC2tUXtdjrruA786nLHG/BDp5XTzZj6G4fTPdnhcogKK5eibWNNel8NejiqgTUxtn/WTM9YMQsZytFX5aYVjOarYp+Ito2M5Y85YUwH1WDM1Y22dYzlqIC/H1HphjEtYSFRwIzPWio3S0R7LGY78D2ucPqCAmckZa2fs5SiBug9sGVuXEzbYy1GA3u4DP6Uup7Q1hn8pDM5YG8LL4dlXFZjs5VBdDguJAvR2kv4pdTmsTVQQbBubscaxHFUE9bHJsZzy1sv5lZBejrbuAz8nlsMTawqwGuZ2kuZYjiLyjLViwyzed4+1fxJm91irUifpn7tejinMoE1M7bHGcyaKkBlrxsZy3vN6Of8gZI81o+ty2MtRwrLBGWuiNeZxiQrg5RjdY41LQRVgfF1OM9xmbaIAOWfCXg7zPShjzeS6HDY5CtgnL8fcuhxavEBffpzJGL4qKOeYqMDoWM7ZJo9LVHCtNWNNe12ObHjDgqIAg3ussZejCsO7D3DGmgr0Zqz9hLocDGC5+4ACZubGcg5GPsdylAAvp8mZ9Mx30Zuxpr0uhzLW9PlUJmNyLGeF18tRA8VyVrQNYLUiYzns5ShAZqxpMznaYzncSVoVJsdy1nn2VQ1yXKJtwUetOJHP6QNKoIw1fa7wT1gvp8naRAkmx3JWuMeaGoK6zpILrci6HDY5CtC7Kqj2uhy5Kih7OQowOJZD6+Vw9wEVwMsxti5npcnr+ClBb8Yar5fzj4WSkYyN5TTZy1ECr5fD/BDDe6xRXQ57OSowuZO0aI15XKIC0+tyeGJNATKWY+56OZQkzfmvKpgZ3Em6z16OGoJs7K9fmrkQdcqxHDWYv14O91hTgsmrgm5xLEcNFMsxtfdrn3NM1AAvx+D1cmQnaZ4zUYHJdTl9rvJTA82ZGJuxBleYYzkKMH+9HO4+oASO5TA/5NbgjDXuJK0Iqhc2uMearMu5LjaYN2BwXU6XtMltscG8gWCKAayxGWscy1HCndZO0j9jvRzOWFOCwXU58HI4lqMErsthfojuHmtkcnTW5Yw4Y00NHMthfgjNmWwZ22Nth2M5KrC1Bvx+TiyHM9YUYHAshzLWOJajAhqX9E2dWOPZVzXIHBNtE2vaYzlDMjmsTRRgco819nIUQd0HtoztscYZa0rYp/QBg+ty2hjAcixHAWbHcni9HCWQl2PquIS7Dyjiuq6zk7T29XIcrstRhNGxHK7yU0OQjY3uscYmRwFyvRxtXg6vl/OPxeRYDmesKQLjkqapPdZoVVA2OQqQsRzD63JYmyhgNg2NjeWMeFVQNchO0toGsFohL+eIhUQBcr0cbWmNvF7OPxaDe6wNRz53H1CCybOv3H1AETdmr5fDPdZUYXQsh70cNcheJqZ6OWecsaYEvd0HdMdyqhzLUcUs2TS3LsfnemElGD0u4Ux6NVAsR98UvfZYTpdjOYqYJRzLYX6A3l4mWpE91tjLUYDsPmBwXQ57OYowuC7H4Yw1RciMNUOFhHqscSxHARiXxDpjOZrrci65+4AiTJ4zofxXFhIF0KqgI3Mz1tjkqOA688cG1+UcYADLXo4KTK7LGZ1xLEcJGJcYuyooj0sUAS/H5FgOZayxNlGByT3WaMFHFhIFyLoc7iTNfA/NsZyfsF7OmDtJq8DgWI4rWmOO5ahAzr6a20l6yp2kFRCYXZfD3QdUQQNYU2M5VOXHQqIAWZfDnaSZ7yG7D5gcy/FDfe9mMkbHcrj7gBpyL6dabBmFM+LuA2q4pkx6beOSn9BjrRXWr4sN5g2YHMtZ4bocNchYjsFeDpscBeSdpM+LrbLRXpdzybEcRRjcY63LmfSKMNnL4U7SitDbSZrXy/nHYm5dzrnsPsCRYQVQXY7BXg53klaBjOVoE5Kfs14Ox3IUYHAsZ8jdBxRxCyExdfa1/4W9HCXcUI6JtrTGn7NeDsdyFDDbNjaW0+WMNUXIOZPdYsMsOGNNFXcQkra5dTm8Xo4qDK7LIS+HZ19VQN0HjM0x4XGJGoyvy2lx9wElmBvLWXD63H1ADZSxtmVsjzXuPqAE8nL0taj4GbEczlhTgsl1OVscy1EDjUv6ho5LaPaVc0wUIOuFtXk52mM5nLGmCpPrcnj1LUUE9bHGyLBWOJajCunl6Ivl5CZH83o5nLGmALNjOdx9QAnwcs5M9XJGZ5ucsaYC8nJG2sYlP2G9nGaoz6cyGYNjOZyxpgpeL4f5IXksR1e98M+py+GMNQWYHMvhuhxFUMaayevlsMlRgN7uAxzL+cdi9Ho57OWogVbfWjc3lsPdB1Rg132N3Qd+xno57OUowfD1cnhcogKTYzk0LmEvRwHSy9E2+8rr5fxj4fVymB8iO0mbGss544w1JRi+Xg57OaowOJbD9cKqoFgOZ9Iz3+VGa/cB7bEc7kuvilkSmhvL4e4DapBVfsbGcj6yl6MCmbGmL5aTmxytdTl+nbsPKMDkWA6vCqoIyqQ3NZaz0hxzLEcFumM52uty2MtRg8F1ObwqqCqC+thf4boc5nvAy9EY8NMey5GdpLn7gAKsZNNUL4dmXzmWowKTYzncSVoRQd3oHmsUGebuAyowOZbDXo4iZMaasevlcCdpJdi0dKy2TtJcl/OPxey6HO4+oASqyxk5x8WWUVAm/ZQ7SSuAYjk6e6yRyeG6nH8gJtfl9M/Yy1FCkI1bwlAh4U7SijC8LueA1sthL0cBBtflcCdpVcgcE23T9FpxRtx9QA3XZtflDLnHmiJ4vRzmh8hYjsFeDpscBdzpjeXkJkfzejns5SjAMjiWs8XdB9QgvZzuebFlFNxJWhV6M9Z+zno5rE0UYHJdDns5ipDahDtJM9/DpliONpPzc+py2MtRgOGxHM5YUwGNS0ztPtD/wl6OEmRXJG0Nb35OXQ5rEwWYHMsZcV2OGihjbcvg7gOcsaYAvRlr2utyZMMb9nIUYHBdzuVnzjFRg8leDncfUMSN1ok17XU5XY7lKMLouhzWJmqQGWvGxnK4+4ASZI81bRlrvF7OPxaDYznuVmvMGWsqgJfTXNE2Ta8VuY4fdx9QgN7uAz8llsPaRAWzba7LYX6A7D5gbI81juUoQa6Xoy+Wk5scfXU5MmON18tRgMF1OUPusaYIiuWsGNpjbXS2yRlrKoCXo7H7wE+oy+GMNTWYXJfDGWuKCOrhl5G2aXqtcPcBVUgvx/BYDq+XowCDYzmX6+zlqIFiOZGh6QPcfUARsi7H5B5rrbB+XWwwb8DouhzuJK0GvVV+WuHuA6qQPdbMrctx2/6YYzkqMLgux+FO0oq4lbGcYsMsZMYaezkKkF2RtI1LuC7nH4vBsZxL0iYsJAqAl/Olb2r3AbjCnLGmANljTZuQcCznH4vBsRx4OZxJrwRZl2OokHAmvSJMj+WQydH2biZjbiznvMtejiKC+thfN7b7wEf2clSgucdabnK01eVU5aqgHMtRgMGxHK7LUQW8nNjUHJOV5phjOSq41hzL0VuXUx2O/A9rrE0UYHRdTpO9HCXIHmumxnK4LkcNejPWfsZ6OR/22MtRgMGxnO4WZ6ypAeOSM+4kzXyXwOgea+TlcMaaEmbT0NS6nCFHhhUhI8PcSZr5Hpp7rGmvy+GMNUUY3GPtYIsz1tRAs6+mejlRK5xyJ2kFYFyitccamRyNdTmXVJfDE2sKMHi9HPJyOH1ABUGdVwVlfoCsyzG3xxplrB2uFhvMG6BkJEMHsF3q/crjEgXYU3Mz1kYYl7CQKAAmx+S6nEuK5bCgKOBmunlmapXf6IwDfkqgAey6Nm2iFenlsJAowD70Da7LoVjOZmxd2S7f3nZ7WIkr5tbl+P/qRS5LyZtvUVwxtvfrir8TR6ssJG++pfGOb/B6OY7wl8LEEx7zei7oR/JxyTe1LqffKoSkLX9f5rUk4ZIvDBWSKP53pcEi8lZqXj38d6ivFFR7LOcy8pcqoT/2mTey+Z9/9yxTtckXEpKw+E2ZV7P5n6U4NVRI0njpPywiCggrS2d9bauVa4/lOFaG35Hvb7iP8SP0P0BW9gJDtUkwwG+Z/55/+OX5/nfuJCTZrZlCUg08qS9f/r58f8WdbpmlrXhLe13OvW0J+HLM2xFiZmb664KzYQmeelWCEJZrqMlxLcGTakoQIr26L/6spaO9LmfBcYG9ak82bNvl+9+8018N/+R94jpmKpOFhZNLd/KH35zvf/d+RaIycQ21ONAkXffKpd9S/rby9+X7371LWZm4B/qERHssh2EYhvlV0R7LYRiGYX5VtNflMAzDML8q2utyGIZhmF8VjuUwDMMwmuBYDsMwDKMJ7XU5DMMwzK+K/rochmEY5heFYzkMwzCMJjiWwzAMw2iC63IYhmEYTXBdDsMwDKMJjuUwDMMwmuBYDsMwDKMJrsthGIZhNMF1OQzDMIwmOJbDMAzDaIJjOQzDMIwmuC6HYRiG0QTX5TAMwzCa4FgOwzAMowmO5TAMwzCa4LochmEYRhNcl8MwDMNogmM5DMMwjCY4lsMwDMNogutyGIZhGE1wXQ7DMAyjCY7lMAzDMJrgWA7DMAyjCa7LYRiGYTTBdTkMwzCMJjiWwzAMw2iCYzkMwzCMJrguh2EYhtEE1+UwDMMwmuBYDsMwDKMJjuUwDMMwmuC6HIZhGEYTXJfDMAzDaIJjOQzDMIwmOJbDMAzDaILrchiGYRhNcF0OwzAMowmO5TAMwzCa4FgOwzAMowmuy2EYhmE0wXU5DMMwjCY4lsMwDMNogmM5DMMwjCa4LodhGIbRBNflMAzDMJrgWA7DMAyjCY7lMAzDMJrguhyGYRhGE1yXwzAMw2iCYzkMwzCMJjiWwzAMw2iC63IYhmEYTXBdDsMwDKMJjuUwDMMwmuBYDsMwDKMJrsthGIZhNMF1OQzDMIwmOJbDMAzDaIJjOQzDMIwmuC6HYRiG0QTX5TAMwzCa4FgOwzAMowmO5TAMwzCa4LochmEYRhNcl8MwDMNogmM5DMMwjCY4lsMwDMNogutyGIZhGE1wXQ7DMAyjCY7lMAzDMJrgWA7DMAyjCa7LYRiGYTTBdTkMwzCMJjiWwzAMw2iCYzkMwzCMJrguh2EYhtEE1+UwDMMwmuBYDsMwDKMJjuUwDMMwmuC6HIZhGEYTXJfDMAzDaIJjOQzDMIwmOJbDMAzDaILrchiGYRhNcF0OwzAMowmO5TAMwzCa4FgOwzAMowmuy2EYhmE0wXU5DMMwjCY4lsMwDMNogmM5DMMwjCa4LodhGIbRBNflMAzDMJqYx3Kui22GYRiGKYnrwuTcFdsMwzAMUxL2QJoc76rYZhiGYZiSsPdyL4djOQzDMEzJFF5OIwoYhmEYplS2YjI5S2GcMQzDMEypNPwlMjmV3yqVf/ONb3zjG9/4VtKN7pUlaXIYhmEYpnyWlv4PzGDwnTL3fVIAAAAASUVORK5CYII=;" vertex="1" parent="1">
          <mxGeometry x="50" y="340" width="673.46" height="180" as="geometry" />
        </mxCell>
        <mxCell id="oxd261YcxybyjYHQ-8nC-21" value="Node.JS (Webserver)" style="swimlane;" vertex="1" parent="1">
          <mxGeometry x="80" y="40" width="360" height="120" as="geometry" />
        </mxCell>
        <mxCell id="oxd261YcxybyjYHQ-8nC-22" value="React Native Expo&lt;br&gt;(Frontend)" style="rounded=0;whiteSpace=wrap;html=1;" vertex="1" parent="oxd261YcxybyjYHQ-8nC-21">
          <mxGeometry x="40" y="40" width="120" height="60" as="geometry" />
        </mxCell>
        <mxCell id="oxd261YcxybyjYHQ-8nC-23" value="Express.js&lt;br&gt;(Backend)" style="rounded=0;whiteSpace=wrap;html=1;" vertex="1" parent="oxd261YcxybyjYHQ-8nC-21">
          <mxGeometry x="200" y="40" width="120" height="60" as="geometry" />
        </mxCell>
        <mxCell id="oxd261YcxybyjYHQ-8nC-26" value="" style="endArrow=none;html=1;rounded=0;exitX=1;exitY=0.5;exitDx=0;exitDy=0;entryX=0;entryY=0.5;entryDx=0;entryDy=0;" edge="1" parent="oxd261YcxybyjYHQ-8nC-21" source="oxd261YcxybyjYHQ-8nC-22" target="oxd261YcxybyjYHQ-8nC-23">
          <mxGeometry width="50" height="50" relative="1" as="geometry">
            <mxPoint x="210" y="270" as="sourcePoint" />
            <mxPoint x="260" y="220" as="targetPoint" />
          </mxGeometry>
        </mxCell>
        <mxCell id="oxd261YcxybyjYHQ-8nC-25" value="DB-Server" style="swimlane;" vertex="1" parent="1">
          <mxGeometry x="480" y="40" width="200" height="120" as="geometry" />
        </mxCell>
        <mxCell id="oxd261YcxybyjYHQ-8nC-24" value="MongoDB&lt;br&gt;(Datenbank)" style="rounded=0;whiteSpace=wrap;html=1;" vertex="1" parent="oxd261YcxybyjYHQ-8nC-25">
          <mxGeometry x="40" y="40" width="120" height="60" as="geometry" />
        </mxCell>
        <mxCell id="oxd261YcxybyjYHQ-8nC-27" value="" style="endArrow=none;html=1;rounded=0;exitX=1;exitY=0.5;exitDx=0;exitDy=0;entryX=0;entryY=0.5;entryDx=0;entryDy=0;" edge="1" parent="1" source="oxd261YcxybyjYHQ-8nC-23" target="oxd261YcxybyjYHQ-8nC-24">
          <mxGeometry width="50" height="50" relative="1" as="geometry">
            <mxPoint x="530" y="220" as="sourcePoint" />
            <mxPoint x="580" y="170" as="targetPoint" />
          </mxGeometry>
        </mxCell>
      </root>
    </mxGraphModel>
  </diagram>
</mxfile>
